<svg xmlns="http://www.w3.org/2000/svg" width="1600" height="900" viewBox="0 0 1600 900" preserveAspectRatio="xMidYMid slice">
  <defs>
    <linearGradient id="g" x1="0" x2="0" y1="0" y2="1">
      <stop offset="0%" stop-color="#08301a"/>
      <stop offset="60%" stop-color="#0b4026"/>
      <stop offset="100%" stop-color="#133f27"/>
    </linearGradient>
  </defs>
  <rect width="100%" height="100%" fill="url(#g)" />

  <!-- simple layered forest silhouettes -->
  <g fill="#0e3d24" opacity="0.95">
    <ellipse cx="200" cy="720" rx="520" ry="220" />
    <ellipse cx="1200" cy="740" rx="520" ry="200" />
  </g>

  <g fill="#0b5a2f">
    <path d="M120 700 L160 620 L200 700 Z" />
    <path d="M180 700 L220 600 L260 700 Z" />
    <path d="M140 720 L180 640 L220 720 Z" />

    <path d="M420 700 L460 600 L500 700 Z" />
    <path d="M460 700 L500 610 L540 700 Z" />

    <path d="M1000 700 L1040 610 L1080 700 Z" />
    <path d="M1120 700 L1160 620 L1200 700 Z" />
    <path d="M1320 720 L1360 620 L1400 720 Z" />
  </g>

  <!-- soft vignette -->
  <radialGradient id="v" cx="50%" cy="40%">
    <stop offset="0%" stop-color="#000" stop-opacity="0" />
    <stop offset="100%" stop-color="#000" stop-opacity="0.45" />
  </radialGradient>
  <rect width="100%" height="100%" fill="url(#v)" />
</svg>
